<svg xmlns="http://www.w3.org/2000/svg" width="18.446" height="8.197" viewBox="0 0 18.446 8.197">
  <g id="long-arrow-pointing-to-the-right" transform="translate(0 -137.052)">
    <path id="Path_372" data-name="Path 372" d="M18.339,140.874l-4.1-3.736a.343.343,0,0,0-.374-.053.31.31,0,0,0-.2.31v2.391H.342a.329.329,0,0,0-.342.342v2.049a.329.329,0,0,0,.342.341H13.664v2.391a.322.322,0,0,0,.2.31.333.333,0,0,0,.374-.064l4.1-3.779a.349.349,0,0,0,.107-.256A.337.337,0,0,0,18.339,140.874Z" fill="#0070f1"/>
  </g>
</svg>
