<svg id="logo" xmlns="http://www.w3.org/2000/svg" width="33.529" height="41.389" viewBox="0 0 33.529 41.389">
  <path id="Path_81" data-name="Path 81" d="M26.806,37.744,4.816,32.517A3.311,3.311,0,0,1,2.266,29.3V11.464a3.311,3.311,0,0,1,2.55-3.218L26.64,3.059a3.415,3.415,0,0,1,3.071.683A3.237,3.237,0,0,1,30.8,6.163V34.356a3.442,3.442,0,0,1-2.169,3.3,3.265,3.265,0,0,1-1.825.093" transform="translate(2.728 3.557)" fill="#354049" fill-rule="evenodd" opacity="0.2"/>
  <path id="Path_82" data-name="Path 82" d="M26.806.088,4.816,5.314a3.311,3.311,0,0,0-2.55,3.218V26.37a3.311,3.311,0,0,0,2.55,3.216L26.64,34.773a3.409,3.409,0,0,0,3.071-.683,3.237,3.237,0,0,0,1.089-2.42V3.476a3.442,3.442,0,0,0-2.169-3.3A3.265,3.265,0,0,0,26.806.088" transform="translate(2.728 0)" fill="#354049" fill-rule="evenodd" opacity="0.2"/>
  <path id="Path_83" data-name="Path 83" d="M4.693.1,30.732,6.315a3.641,3.641,0,0,1,2.8,3.542V31.3a3.641,3.641,0,0,1-2.8,3.542L4.713,41.044a3.7,3.7,0,0,1-2.59-.26A3.878,3.878,0,0,1,0,37.343V3.9A3.847,3.847,0,0,1,1.032,1.182,3.866,3.866,0,0,1,4.693.1" transform="translate(0 0)" fill="#354049" fill-rule="evenodd"/>
  <path id="Path_84" data-name="Path 84" d="M10.3,19.141a1.249,1.249,0,0,1-.853.362,1.114,1.114,0,0,1-.778-.3L4.8,15.629v2.828a1.157,1.157,0,0,1-2.314,0V6.371a1.157,1.157,0,1,1,2.314,0v6.412L8.539,10.2a1.163,1.163,0,0,1,1.349,1.9l-3.17,2.145,3.529,3.245a1.185,1.185,0,0,1,.057,1.651m8.785-4.326a2.5,2.5,0,1,0-2.5,2.5,2.515,2.515,0,0,0,2.5-2.5m2.3,0a4.806,4.806,0,0,1-4.8,4.8,4.975,4.975,0,0,1-2.676-.8v4.442a1.148,1.148,0,1,1-2.3,0V11.19a1.148,1.148,0,0,1,1.157-1.14,1.17,1.17,0,0,1,1.1.8,4.737,4.737,0,0,1,2.713-.835,4.806,4.806,0,0,1,4.8,4.8M23.9,8.4A1.183,1.183,0,0,1,22.7,7.243V7.148a1.176,1.176,0,1,1,2.352,0v.095A1.174,1.174,0,0,1,23.9,8.4m0,11.138A1.186,1.186,0,0,1,22.7,18.362V11.039a1.176,1.176,0,0,1,2.352,0v7.323A1.179,1.179,0,0,1,23.9,19.539" transform="translate(2.994 6.276)" fill="#fff" fill-rule="evenodd"/>
</svg>
