<svg xmlns="http://www.w3.org/2000/svg" width="1919.377" height="320.731" viewBox="0 0 1919.377 320.731">
  <path id="Shape" d="M1920,320.731H1567.729l171.065-111.775a94.067,94.067,0,0,1,114.941,9.351,95.134,95.134,0,0,1,15.671,18.582L1920,315.278v5.452Zm-1833.665,0H75.075a5.657,5.657,0,0,1,11.261,0Zm-48.379,0H27.567a5.652,5.652,0,0,1,10.388,0ZM7.951,305.4A5.616,5.616,0,0,1,4.1,303.884l-.006,0-.005-.005a5.69,5.69,0,0,1,3.861-9.85,5.619,5.619,0,0,1,3.857,1.529A5.688,5.688,0,0,1,7.951,305.4Zm47.943-1.685a5.622,5.622,0,0,1-3.847-1.517l-.005,0-.005,0a5.69,5.69,0,0,1,3.862-9.85,5.618,5.618,0,0,1,3.857,1.528,5.689,5.689,0,0,1-3.862,9.848Zm47.944-1.683a5.634,5.634,0,0,1-3.847-1.518l-.006-.007,0,0a5.69,5.69,0,0,1,3.862-9.849,5.621,5.621,0,0,1,3.857,1.528,5.69,5.69,0,0,1-3.861,9.85ZM31.085,280.441a5.626,5.626,0,0,1-3.846-1.516.02.02,0,0,0-.007-.007l0,0a5.69,5.69,0,0,1,3.86-9.85,5.625,5.625,0,0,1,3.858,1.529,5.689,5.689,0,0,1-3.861,9.849Zm47.944-1.684a5.629,5.629,0,0,1-3.847-1.518l-.011-.011a5.689,5.689,0,0,1,3.86-9.849,5.624,5.624,0,0,1,3.859,1.527,5.69,5.69,0,0,1-3.861,9.85Zm47.944-1.685a5.627,5.627,0,0,1-3.848-1.518l-.007-.006,0,0a5.689,5.689,0,0,1,3.862-9.849,5.625,5.625,0,0,1,3.857,1.528,5.69,5.69,0,0,1-3.86,9.85ZM6.277,257.163a5.623,5.623,0,0,1-3.846-1.516l-.005-.005-.006-.005a5.69,5.69,0,0,1,3.862-9.849,5.621,5.621,0,0,1,3.857,1.527,5.689,5.689,0,0,1-3.861,9.849ZM54.22,255.48a5.633,5.633,0,0,1-3.847-1.518l-.011-.011a5.689,5.689,0,0,1,3.861-9.849,5.617,5.617,0,0,1,3.856,1.527,5.69,5.69,0,0,1-3.86,9.85Zm47.945-1.686a5.628,5.628,0,0,1-3.847-1.517l-.007-.006,0,0a5.689,5.689,0,0,1,3.861-9.85,5.618,5.618,0,0,1,3.856,1.529,5.689,5.689,0,0,1-3.859,9.848ZM29.41,232.2a5.624,5.624,0,0,1-3.85-1.522l-.008-.007a5.691,5.691,0,0,1,3.862-9.85,5.622,5.622,0,0,1,3.857,1.529,5.69,5.69,0,0,1-3.862,9.85Zm47.944-1.685A5.626,5.626,0,0,1,73.508,229l-.005,0-.005,0a5.69,5.69,0,0,1,3.862-9.85,5.617,5.617,0,0,1,3.856,1.528,5.689,5.689,0,0,1-3.861,9.849ZM52.547,207.24a5.629,5.629,0,0,1-3.848-1.517.046.046,0,0,0-.011-.01,5.689,5.689,0,0,1,3.862-9.849,5.623,5.623,0,0,1,3.858,1.528,5.689,5.689,0,0,1-3.861,9.848Zm218.521-31.373a93.545,93.545,0,0,1-52.712-16.252L.91,0H441.5L349.432,133.98A94.236,94.236,0,0,1,271.068,175.867ZM1793.7,106.956a5.626,5.626,0,0,1-3.847-1.517l-.011-.011a5.689,5.689,0,0,1,3.861-9.849,5.618,5.618,0,0,1,3.857,1.528,5.689,5.689,0,0,1-3.86,9.849Zm-24.808-23.278a5.626,5.626,0,0,1-3.847-1.517l-.011-.011a5.689,5.689,0,0,1,3.861-9.849,5.623,5.623,0,0,1,3.858,1.528,5.688,5.688,0,0,1-3.861,9.848Zm47.943-1.684a5.629,5.629,0,0,1-3.847-1.517l-.005-.005-.005,0a5.689,5.689,0,0,1,3.862-9.849,5.62,5.62,0,0,1,3.857,1.527,5.689,5.689,0,0,1-3.861,9.849ZM1744.082,60.4a5.625,5.625,0,0,1-3.847-1.517l-.005,0-.005-.005a5.689,5.689,0,0,1,3.861-9.849,5.612,5.612,0,0,1,3.857,1.528,5.689,5.689,0,0,1-3.861,9.848Zm47.944-1.685a5.628,5.628,0,0,1-3.847-1.517l-.006,0a5.69,5.69,0,0,1,3.856-9.854,5.622,5.622,0,0,1,3.858,1.528,5.689,5.689,0,0,1-3.861,9.848Zm47.943-1.684a5.633,5.633,0,0,1-3.848-1.517l-.007-.008a5.69,5.69,0,0,1,3.859-9.852,5.615,5.615,0,0,1,3.857,1.528,5.689,5.689,0,0,1-3.861,9.849ZM1719.274,37.125a5.626,5.626,0,0,1-3.848-1.517l-.005-.005a5.69,5.69,0,0,1,3.856-9.854,5.625,5.625,0,0,1,3.858,1.529,5.688,5.688,0,0,1-3.861,9.848Zm47.944-1.685h0a5.621,5.621,0,0,1-3.843-1.516.069.069,0,0,1-.012-.011,5.688,5.688,0,0,1,3.86-9.848,5.624,5.624,0,0,1,3.859,1.528,5.688,5.688,0,0,1-3.861,9.848Zm47.943-1.684a5.63,5.63,0,0,1-3.848-1.518l0-.005,0,0a5.689,5.689,0,0,1,3.86-9.849,5.623,5.623,0,0,1,3.858,1.528,5.689,5.689,0,0,1-3.861,9.849Zm47.944-1.685a5.63,5.63,0,0,1-3.849-1.517l-.011-.011a5.69,5.69,0,0,1,3.861-9.849,5.622,5.622,0,0,1,3.858,1.528,5.689,5.689,0,0,1-3.86,9.849ZM1742.4,12.163a5.62,5.62,0,0,1-3.843-1.516l-.008-.007,0,0a5.69,5.69,0,0,1,3.861-9.849,5.623,5.623,0,0,1,3.858,1.528,5.688,5.688,0,0,1-3.865,9.848Zm47.947-1.684a5.624,5.624,0,0,1-3.847-1.517l-.005-.005-.005,0A5.706,5.706,0,0,1,1787.3,0h6.105a5.767,5.767,0,0,1,.807.631,5.69,5.69,0,0,1-3.861,9.849ZM1838.3,8.795a5.624,5.624,0,0,1-3.847-1.517l-.011-.011A5.708,5.708,0,0,1,1833.555,0h9.483a5.686,5.686,0,0,1-4.743,8.795Z" transform="translate(-0.623 0)" fill="#fff" opacity="0.1"/>
</svg>
